<?xml version="1.0" standalone="no"?><!DOCTYPE svg PUBLIC "-//W3C//DTD SVG 1.1//EN" "http://www.w3.org/Graphics/SVG/1.1/DTD/svg11.dtd"><svg t="1736841171788" class="icon" viewBox="0 0 1024 1024" version="1.1" xmlns="http://www.w3.org/2000/svg" p-id="16054" xmlns:xlink="http://www.w3.org/1999/xlink" width="200" height="200"><path d="M911.9 840.3c-49.3-167.1-197-286-370.7-298.5V361.4h119.4c16.5 0 29.9-13.4 29.9-29.9V212.1c0-16.5-13.4-29.9-29.9-29.9H362.1c-16.5 0-29.8 13.4-29.8 29.9v119.4c0 16.5 13.4 29.9 29.8 29.9h119.4v180.5C307.7 554.3 160 673.3 110.7 840.3c-30.6 6.6-50.9 35.8-46.5 66.8 4.4 31 32.1 53.3 63.3 51.1C158.8 956 183 930 183 898.7c0-15.4-6-29.3-15.5-39.8 41.3-142.5 166.2-244.8 314-257.3v245.7c-17.8 10.3-29.9 29.4-29.9 51.4 0 33 26.7 59.7 59.7 59.7s59.7-26.7 59.7-59.7c0-22-12.1-41.1-29.9-51.4V601.6C689 614 813.9 716.4 855.1 858.9c-9.9 10.9-15.5 25-15.5 39.8 0 33 26.7 59.7 59.7 59.7s59.7-26.7 59.7-59.7c0.1-28.2-19.6-52.5-47.1-58.4z m0 0" p-id="16055"></path><path d="M302.4 480.8h72.3c16.5 0 29.9-13.4 29.9-29.8 0-16.5-13.4-29.9-29.9-29.9h-72.3c-16.5 0-29.8-13.4-29.8-29.8V152.4c0-16.5 13.4-29.9 29.8-29.9h417.9c16.5 0 29.8 13.4 29.8 29.9v238.8c0 16.5-13.4 29.8-29.8 29.8h-84.5c-16.5 0-29.9 13.4-29.9 29.9s13.4 29.8 29.9 29.8h84.5c49.5 0 89.5-40.1 89.5-89.5V152.4c0-49.5-40.1-89.6-89.5-89.6H302.4c-49.5 0-89.6 40.1-89.6 89.6v238.8c0 49.5 40.1 89.6 89.6 89.6z m0 0" p-id="16056"></path></svg>