<?xml version="1.0" standalone="no"?><!DOCTYPE svg PUBLIC "-//W3C//DTD SVG 1.1//EN" "http://www.w3.org/Graphics/SVG/1.1/DTD/svg11.dtd"><svg t="1736840975139" class="icon" viewBox="0 0 1024 1024" version="1.1" xmlns="http://www.w3.org/2000/svg" p-id="11445" xmlns:xlink="http://www.w3.org/1999/xlink" width="200" height="200"><path d="M662.4768 51.2L904.53333333 288.59733333V870.4c0 56.55466667-45.84533333 102.4-102.4 102.4H221.86666667c-56.55466667 0-102.4-45.84533333-102.4-102.4V51.2h543.01013333z m-28.27946667 407.82506667c-39.552 0-69.41866667 13.28213333-90.15466666 39.49653333-17.92853333 22.31893333-27.09333333 51.63946667-27.09333334 87.58186667 0 36.58666667 8.8704 65.51893333 26.06933334 87.15093333 20.0192 25.54026667 50.4832 39.31306667 91.79306666 39.31306667 26.79466667 0 49.70666667-7.78666667 68.82133334-23.08266667 23.82506667-18.97386667 37.58506667-46.33173333 41.14346666-83.00373333H684.672c-3.08053333 18.00533333-9.20746667 31.79946667-19.55413333 40.1152-7.85066667 5.84533333-18.20586667 8.7296-30.61333334 8.7296-19.072 0-33.728-5.4784-42.9312-17.344-9.09226667-12.032-13.0816-29.568-13.0816-51.8784 0-21.74293333 4.02346667-38.95466667 13.50826667-51.4304 9.35253333-12.79573333 23.33013333-18.4064 41.58293333-18.4064 12.3264 0 22.592 2.11626667 30.68586667 7.68 9.83893333 6.56213333 14.93333333 18.01813333 17.1392 33.792h59.63946667c-1.42933333-32.4864-13.0688-57.93706667-34.8672-75.56266667-18.688-15.22773333-42.83306667-23.15093333-71.98293334-23.15093333z m-151.21066666 4.3008H277.67466667v56.32h71.8848V708.26666667h61.5424v-188.6208H482.98666667v-56.32z" fill="#bfbfbf" p-id="11446"></path><path d="M836.26666667 324.26666667h-204.8V119.46666667z" fill="#bfbfbf" p-id="11447"></path></svg>