<?xml version="1.0" standalone="no"?><!DOCTYPE svg PUBLIC "-//W3C//DTD SVG 1.1//EN" "http://www.w3.org/Graphics/SVG/1.1/DTD/svg11.dtd"><svg t="1733580653966" class="icon" viewBox="0 0 1024 1024" version="1.1" xmlns="http://www.w3.org/2000/svg" p-id="2405" xmlns:xlink="http://www.w3.org/1999/xlink" width="200" height="200"><path d="M381.5 311.8h261c12.8 0 25-5.5 33.5-15.2s12.4-22.6 10.7-35.5c-10.5-78.3-85.6-137.3-174.7-137.3-89.3 0-164.5 59.2-174.7 137.7-1.7 12.7 2.2 25.4 10.6 35.1 8.5 9.6 20.7 15.2 33.6 15.2z m53.9-99c20.8-16.1 48.1-25 76.6-25 28.5 0 55.6 8.9 76.5 25 12.7 9.8 22.4 21.9 28.4 35H407.1c6-13.1 15.6-25.1 28.3-35z" p-id="2406"></path><path d="M886 545.2h-92.7l-0.3-7.7V363.3c1.5-3.7 2.3-7.7 2.3-11.9v-0.7l43.2-41.3c12.8-12.2 13.2-32.5 1-45.2-12.2-12.8-32.5-13.2-45.2-1l-58.9 56.3H288.6l-58.9-56.3c-12.8-12.2-33-11.8-45.2 1-12.2 12.8-11.8 33 1 45.2l47.3 45.2c-2.6 6.5-4.1 13.6-4.1 21v169.6H138c-17.7 0-32 14.3-32 32s14.3 32 32 32h90.7V626c0.1 2.3 1.8 57.2 31.2 113 2.5 4.8 5.3 9.7 8.3 14.6L172.6 845c-12.8 12.2-13.2 32.5-1 45.2 6.3 6.6 14.7 9.9 23.1 9.9 7.9 0 15.9-2.9 22.1-8.9l92.5-88.4c34.2 30.4 83.7 54.6 155.1 56.8 11 0.4 22-3.8 30-11.5 8.1-7.8 12.7-18.6 12.7-29.8V492h9.5v326.4c0 11.2 4.6 22 12.7 29.8 7.7 7.4 18 11.5 28.6 11.5h1.5c60-2.2 111.3-22.8 151.3-60.4l96.3 92.1c6.2 5.9 14.2 8.9 22.1 8.9 8.4 0 16.9-3.3 23.1-9.9 12.2-12.8 11.8-33-1-45.2l-100.1-95.7c0.7-1.1 1.3-2.1 2-3.2 31.3-52.1 39.7-104.8 41.6-119.7l0.1-1c0.1-1.3 0.3-3.3 0.3-5.8v-10.4H886c17.7 0 32-14.3 32-32s-14.3-32.2-32-32.2zM580.7 793.5V484.2c0-31-25.2-56.2-56.2-56.2h-25.1c-31 0-56.2 25.2-56.2 56.2v309.7c-41.3-5.2-74.7-21-99.8-47.1-1.4-4.8-3.9-9.4-7.6-13.3-2.5-2.6-5.3-4.6-8.3-6.2-3.5-5.1-6.8-10.5-9.9-16.2-22.1-40.8-24.7-82.4-24.9-86.5v-239c1.5-0.6 3-1.4 4.4-2.2h429.7l2.1 1.2v154.3l1.4 32.7c-0.3 1.8-0.5 3.7-0.5 5.6 0 2.9 0.4 5.6 1.1 8.3l0.2 4.9v28.5c-1.2 9.2-7.8 52.4-32.9 94.3-27.3 45.6-66.7 72.6-117.5 80.3z" p-id="2407"></path></svg>