<?xml version="1.0" standalone="no"?><!DOCTYPE svg PUBLIC "-//W3C//DTD SVG 1.1//EN" "http://www.w3.org/Graphics/SVG/1.1/DTD/svg11.dtd"><svg t="1737680978316" class="icon" viewBox="0 0 1024 1024" version="1.1" xmlns="http://www.w3.org/2000/svg" p-id="12004" xmlns:xlink="http://www.w3.org/1999/xlink" width="200" height="200"><path d="M426.666667 85.333333a85.333333 85.333333 0 0 1 85.333333 85.333334v682.666666a85.333333 85.333333 0 0 1-85.333333 85.333334H170.666667a85.333333 85.333333 0 0 1-85.333334-85.333334V170.666667a85.333333 85.333333 0 0 1 85.333334-85.333334h256z m0 85.333334H170.666667v682.666666h256V170.666667zM853.333333 512a85.333333 85.333333 0 0 1 85.333334 85.333333v256a85.333333 85.333333 0 0 1-85.333334 85.333334h-170.666666a85.333333 85.333333 0 0 1-85.333334-85.333334V597.333333a85.333333 85.333333 0 0 1 85.333334-85.333333h170.666666z m0 85.333333h-170.666666v256h170.666666V597.333333z" fill="#333333" p-id="12005"></path><path d="M853.333333 85.333333a85.333333 85.333333 0 0 1 85.333334 85.333334v170.666666a85.333333 85.333333 0 0 1-85.333334 85.333334h-170.666666a85.333333 85.333333 0 0 1-85.333334-85.333334V170.666667a85.333333 85.333333 0 0 1 85.333334-85.333334h170.666666z m0 85.333334h-170.666666v170.666666h170.666666V170.666667z" fill="#1890FF" p-id="12006"></path></svg>