<?xml version="1.0" standalone="no"?><!DOCTYPE svg PUBLIC "-//W3C//DTD SVG 1.1//EN" "http://www.w3.org/Graphics/SVG/1.1/DTD/svg11.dtd"><svg t="1736842206108" class="icon" viewBox="0 0 1025 1024" version="1.1" xmlns="http://www.w3.org/2000/svg" p-id="53045" xmlns:xlink="http://www.w3.org/1999/xlink" width="200.1953125" height="200"><path d="M852.903 56.86c59.135 0 109.001 43.84 113.38 101.325l0.34 8.415v262.922a56.86 56.86 0 0 1-113.322 6.653l-0.398-6.71V170.581H170.581v625.462h279.24a56.86 56.86 0 0 1 56.52 50.207l0.283 6.653a56.86 56.86 0 0 1-50.207 56.462l-6.653 0.398H170.581c-59.135 0-109.001-43.839-113.38-101.325l-0.34-8.415V166.6c0-58.793 47.193-105.305 105.361-109.399l8.359-0.34h682.322z" fill="#888E99" p-id="53046"></path><path d="M399.5 357.537v60.5h-85.177v48.615h79.718v58.11h-79.718v56.577h88.418v60.499H247.456V357.537H399.5z m102.405 0l43.157 175.186h0.74V357.537h62.545l-0.057 231.364a106.101 106.101 0 0 0-59.134 45.659l-4.492 7.278h-9.666l-44.579-175.584h-0.739v175.584h-62.546V357.537h74.771z m188.378 0l21.72 173.424a103.827 103.827 0 0 0-40.825 51.97l-1.194 3.355-6.369-1.138-43.44-227.611h70.108z m125.775 0l-30.023 154.148-12.11 0.057-7.165 0.227-5.914 0.569-6.652 1.023-9.78 2.445-9.382 3.128a118.952 118.952 0 0 0-11.145 4.89l21.039-166.487h71.132z m2.104 211.065c22.289 0 42.076 13.42 49.127 33.32l11.827 33.434 3.013 1.365c6.084 2.843 11.94 6.084 17.627 9.552l2.615 1.706 36.789-7.05a53.449 53.449 0 0 1 52.539 19.332l2.73 4.037 22.118 36.05a46.455 46.455 0 0 1-6.084 56.632L985.5 783.42l0.284 3.07 0.285 9.553c0 3.184-0.114 6.368-0.285 9.552l-0.284 3.014 24.905 26.44c13.646 14.5 16.83 35.083 8.472 52.425l-2.331 4.265-22.119 36.049a53.107 53.107 0 0 1-55.268 23.313l-36.789-7.051-2.615 1.763a194.432 194.432 0 0 1-17.627 9.552l-3.013 1.365-11.827 33.434a51.345 51.345 0 0 1-44.408 33.092l-4.72 0.228h-44.237a51.686 51.686 0 0 1-49.127-33.32l-11.884-33.434-2.956-1.308a193.154 193.154 0 0 1-17.627-9.61l-2.673-1.705-36.731 7.05a53.449 53.449 0 0 1-52.54-19.332l-2.728-4.037-22.119-36.05a46.455 46.455 0 0 1 6.084-56.632l24.905-26.497-0.228-3.014-0.284-9.552c0-3.184 0.114-6.368 0.284-9.553l0.228-3.07-24.848-26.383a46.512 46.512 0 0 1-8.472-52.425l2.331-4.265 22.119-36.05a53.107 53.107 0 0 1 55.268-23.312l36.731 6.994 2.73-1.706c5.686-3.468 11.542-6.71 17.626-9.61l2.9-1.307 11.884-33.434a51.345 51.345 0 0 1 44.408-33.092l4.72-0.228z m-22.12 170.58a56.86 56.86 0 1 0 0 113.721 56.86 56.86 0 0 0 0-113.72z" fill="#888E99" p-id="53047"></path></svg>