<?xml version="1.0" standalone="no"?><!DOCTYPE svg PUBLIC "-//W3C//DTD SVG 1.1//EN" "http://www.w3.org/Graphics/SVG/1.1/DTD/svg11.dtd"><svg t="1735798086195" class="icon" viewBox="0 0 1024 1024" version="1.1" xmlns="http://www.w3.org/2000/svg" p-id="5433" xmlns:xlink="http://www.w3.org/1999/xlink" width="200" height="200"><path d="M160.3 127.9h704c17.7 0 32 14.3 32 32v704c0 17.7-14.3 32-32 32h-704c-17.7 0-32-14.3-32-32v-704c0-17.6 14.3-32 32-32z" fill="#FEA100" p-id="5434"></path><path d="M755.8 658.6L548 316.7c-10.1-15.9-18.6-28.8-37.3-28.8-18.7 0-29.3 15.2-37.3 28.8L265.5 658.6c-8.7 13.5-14.9 29.7-11 43.7 3.4 12.3 16.6 20.7 36.8 20.7H730c25.4 0 33.9-12 36.3-18.3 5.6-14.7-1.3-31.3-10.5-46.1zM485.3 432.1c0-14.1 11.4-25.5 25.5-25.5s25.5 11.4 25.5 25.5v111.8c0 14.1-11.4 25.5-25.5 25.5s-25.5-11.4-25.5-25.5V432.1z m25.5 222.5c-15.2 0-27.5-12.3-27.5-27.5s12.3-27.5 27.5-27.5 27.5 12.3 27.5 27.5-12.3 27.5-27.5 27.5z" fill="#FFFFFF" p-id="5435"></path></svg>