<?xml version="1.0" standalone="no"?><!DOCTYPE svg PUBLIC "-//W3C//DTD SVG 1.1//EN" "http://www.w3.org/Graphics/SVG/1.1/DTD/svg11.dtd"><svg t="1736843417199" class="icon" viewBox="0 0 1030 1024" version="1.1" xmlns="http://www.w3.org/2000/svg" p-id="72229" xmlns:xlink="http://www.w3.org/1999/xlink" width="201.171875" height="200"><path d="M511.981761 0.036479a511.981761 511.981761 0 0 0-511.981761 511.98176h79.99715A431.984611 431.984611 0 1 1 511.981761 944.00285a439.02436 439.02436 0 0 1-127.995441-19.199316 489.582559 489.582559 0 0 1-77.437241-33.918792l57.597948-319.9886h305.269125V493.458901H376.946571l30.078929-166.394073h316.148737V247.067678H335.98803v24.319134L217.592248 928.00342a504.942011 504.942011 0 0 0 142.714916 71.037469A511.981761 511.981761 0 1 0 511.981761 0.036479z" p-id="72230"></path></svg>