<?xml version="1.0" standalone="no"?><!DOCTYPE svg PUBLIC "-//W3C//DTD SVG 1.1//EN" "http://www.w3.org/Graphics/SVG/1.1/DTD/svg11.dtd"><svg t="1736841532322" class="icon" viewBox="0 0 1024 1024" version="1.1" xmlns="http://www.w3.org/2000/svg" p-id="26570" xmlns:xlink="http://www.w3.org/1999/xlink" width="200" height="200"><path d="M829.14 88.89L695.19 222.84l-12.41 79.43-200.75 200.75-16.72 56.39 53.68-19.43 197.04-197.04 85.85-13.41 133.95-133.96-126.44 19.76 19.75-126.44z" p-id="26571"></path><path d="M713.44 390.16l-81 100a160.51 160.51 0 1 1-92.44-96.8l96.88-96.88 16.72-107.09A391.22 391.22 0 0 0 481 149.47c-217 0-392.83 175.87-392.83 392.82S264 935.11 481 935.11s392.81-175.87 392.81-392.82a391.24 391.24 0 0 0-39.13-171.07z" p-id="26572"></path></svg>