<?xml version="1.0" standalone="no"?><!DOCTYPE svg PUBLIC "-//W3C//DTD SVG 1.1//EN" "http://www.w3.org/Graphics/SVG/1.1/DTD/svg11.dtd"><svg t="1736841903770" class="icon" viewBox="0 0 1024 1024" version="1.1" xmlns="http://www.w3.org/2000/svg" p-id="49346" xmlns:xlink="http://www.w3.org/1999/xlink" width="200" height="200"><path d="M124.661761 362.65126301c96.890441-96.272701 236.471625-128.721258 365.421003-90.35470201l96.923751-96.27371c10.924526-12.452728 26.596169-18.499927 43.860614-18.239507l15.703943 0.26042-0.0646-15.76955301c-0.16251-34.723701 27.961861-62.652252 62.524061-62.10012099l15.703943 0.26042-0.09791-15.801853c-0.06561-15.768543 6.145109-31.440186 18.630137-43.860614 12.518338-12.419419 29.750483-18.435327 45.454426-18.208216L950.540986 14.625925c32.969398 2.113643 58.232175 29.35985301 59.95518699 60.931258L1020.672749 238.189591l0.0323 3.185605c0.06561 15.769553-6.145109 31.44119601-18.630137 43.86162399l-253.183939 251.52552701c9.559843 31.700606 14.43717 66.489917 14.598671 101.182328 0.487531 99.393705-38.334256 193.455862-108.660828 263.295914C584.502242 971.11193 490.473395 1009.023255 391.533911 1007.461743 292.595436 1005.868941 198.175958 964.902221 127.165025 892.75371601c-70.976614-72.11519501-110.708862-165.819022-111.196392-266.80653901C15.514412 526.552462 54.33518901 432.491314 124.661761 362.65126301L124.661761 362.65126301zM174.04974399 847.75553C295.55393 971.208831 493.431889 974.364154 613.797495 854.8434c60.930249-60.572928 90.388012-138.963443 90.029682-219.4353-0.19481-39.439527-8.257742-80.601058-24.124196-118.707193L959.449779 238.807332l-10.208875-162.665717-160.228063-10.470305 0.39063 78.878045-78.520724-1.23548201 0.39063 78.87804501-78.520724-1.267782-123.48762 122.640749c-113.277735-47.56706-246.6482-27.603531-337.295623 62.426151-60.962549 60.572928-90.421321 138.963443-90.030691 219.43429C82.329349 705.898193 112.534054 785.264778 174.04974399 847.75553L174.04974399 847.75553zM273.281948 537.41238699c28.254581-28.092071 69.676532-44.965886 111.19740199-44.31584499 41.518851 0.68335101 80.926078 16.680014 111.65162301 47.89309 28.547301 29.001523 46.234677 70.977623 46.429488 112.69229401 0.19481 41.71568-17.102944 80.926078-45.35651601 111.22970199-60.897949 60.475018-161.397935 58.849916-222.84801499-3.609545-28.547301-28.969223-46.234677-70.977623-46.429488-112.658985C227.730621 606.926409 242.816823 567.650401 273.281948 537.41238699L273.281948 537.41238699zM318.442644 716.594599c37.944635 38.334256 98.776974 39.30830799 134.249635 2.178243 16.679005-16.516494 27.051399-41.48756 26.921189-66.620127-0.09791-25.16587701-8.616073-48.34832001-27.57224-67.498288-16.873815-17.037335-42.073001-27.929561-67.237868-28.319181-25.198177-0.421921-48.21811 7.608711-67.010758 26.140938-16.679005 16.516494-27.051399 41.48756-26.95349 66.653437C290.969324 674.262187 299.455186 697.444631 318.442644 716.594599L318.442644 716.594599z" fill="#9b9b9b" p-id="49347"></path></svg>