<?xml version="1.0" standalone="no"?><!DOCTYPE svg PUBLIC "-//W3C//DTD SVG 1.1//EN" "http://www.w3.org/Graphics/SVG/1.1/DTD/svg11.dtd"><svg t="1736841758736" class="icon" viewBox="0 0 1024 1024" version="1.1" xmlns="http://www.w3.org/2000/svg" p-id="44964" xmlns:xlink="http://www.w3.org/1999/xlink" width="200" height="200"><path d="M691.911111 640h216.177778A116.053333 116.053333 0 0 0 1024 524.088889V435.911111A116.053333 116.053333 0 0 0 908.088889 320H691.911111A116.053333 116.053333 0 0 0 576 435.911111V448H256V320h76.088889A116.053333 116.053333 0 0 0 448 204.088889V115.911111A116.053333 116.053333 0 0 0 332.088889 0H115.911111A116.053333 116.053333 0 0 0 0 115.911111v88.177778A116.053333 116.053333 0 0 0 115.911111 320H192v546.915556a29.084444 29.084444 0 0 0 29.084444 29.084444H576v12.088889A116.053333 116.053333 0 0 0 691.911111 1024h216.177778a116.053333 116.053333 0 0 0 115.911111-115.911111v-88.177778A116.053333 116.053333 0 0 0 908.088889 704H691.911111A116.053333 116.053333 0 0 0 576 819.911111v12.088889H285.084444a29.084444 29.084444 0 0 1-29.084444-29.084444V512h320v12.088889A116.053333 116.053333 0 0 0 691.911111 640zM640 435.911111a51.911111 51.911111 0 0 1 51.911111-51.911111h216.177778a51.911111 51.911111 0 0 1 51.911111 51.911111v88.177778a51.911111 51.911111 0 0 1-51.911111 51.911111H691.911111a51.911111 51.911111 0 0 1-51.911111-51.911111zM115.911111 256A51.911111 51.911111 0 0 1 64 204.088889V115.911111A51.911111 51.911111 0 0 1 115.911111 64h216.177778a51.911111 51.911111 0 0 1 51.911111 51.911111v88.177778a51.911111 51.911111 0 0 1-51.911111 51.911111H115.911111zM640 819.911111a51.911111 51.911111 0 0 1 51.911111-51.911111h216.177778a51.911111 51.911111 0 0 1 51.911111 51.911111v88.177778a51.911111 51.911111 0 0 1-51.911111 51.911111H691.911111a51.911111 51.911111 0 0 1-51.911111-51.911111z" p-id="44965"></path></svg>