<?xml version="1.0" standalone="no"?><!DOCTYPE svg PUBLIC "-//W3C//DTD SVG 1.1//EN" "http://www.w3.org/Graphics/SVG/1.1/DTD/svg11.dtd"><svg t="1736842724136" class="icon" viewBox="0 0 1101 1024" version="1.1" xmlns="http://www.w3.org/2000/svg" p-id="59216" xmlns:xlink="http://www.w3.org/1999/xlink" width="215.0390625" height="200"><path d="M84.69471 84.69471v677.590709h931.685849V84.69471H84.69471z m0-84.69471h931.685849A84.69471 84.69471 0 0 1 1101.075269 84.69471v677.590709a84.69471 84.69471 0 0 1-84.69471 84.69471H84.69471A84.69471 84.69471 0 0 1 0 762.285419V84.69471A84.69471 84.69471 0 0 1 84.69471 0zM127.042065 1016.380559a42.347355 42.347355 0 1 1 0-84.70572h846.991139a42.347355 42.347355 0 0 1 0 84.70572H127.042065z" p-id="59217"></path><path d="M559.951828 677.579699v-159.545807H376.193376V328.946237h183.714409v-159.545807l287.072344 254.106151-287.028301 254.084129zM315.149763 328.902194h33.913119v189.098666h-33.913119V328.902194z m-61.054623 0h33.913118v189.098666h-33.913118V328.902194z" p-id="59218"></path></svg>