<?xml version="1.0" standalone="no"?><!DOCTYPE svg PUBLIC "-//W3C//DTD SVG 1.1//EN" "http://www.w3.org/Graphics/SVG/1.1/DTD/svg11.dtd"><svg t="1736643330833" class="icon" viewBox="0 0 1024 1024" version="1.1" xmlns="http://www.w3.org/2000/svg" p-id="5141" xmlns:xlink="http://www.w3.org/1999/xlink" width="200" height="200"><path d="M141.4 876.9l-5.7-1.1c-16.2-4.3-24.3-15.7-24.3-34.1 0-20.5 10-32.2 30-35.2h244.7c14.1 5.8 21.1 17.6 21.1 35.2s-7 29.4-21.1 35.2H141.4zM831.3 77H176.5L165 72.6c-52.5 3.5-98 42.4-98 95v399.6l4.7 5.6c4 52.5 52.3 91.2 104.9 91.2h220.3c17 0 25.6-12 25.6-29.5s-8.6-8.5-25.6-29.5H176.6c-20.3 0-30.6-18.3-30.6-37.9V202.2l377.8 213.9L869 196.8v277.6c0 14.3 14.9 21.4 31.5 21.4 14.5 0 22.2-5.5 27.7-16.4l-0.2-5V167.6c0-55.2-41.1-90.6-96.7-90.6z m3 59l-316 202.5-338.2-186.9c-4.2-10.8-6.8-15.6-3.6-15.6h657.8z" p-id="5142"></path><path d="M842.1 933.9c-15.3 8.6-32.9 13.4-51 13.2l-135.7-1.4c-36.3-0.4-69.9-20.2-87.7-51.8L501 775.6c-17.8-31.6-17.4-70.6 1-101.9l69.1-116.9c18.5-31.2 52.5-50.4 88.7-50l135.7 1.4c36.3 0.4 69.9 20.2 87.7 51.8l66.7 118.2c17.8 31.6 17.4 70.6-1 101.9l-69 116.8c-9.2 15.5-22.2 28.2-37.8 37zM627.5 553.3c-9.6 5.4-17.8 13.3-23.6 23l-69 116.8c-11.5 19.5-11.8 43.9-0.7 63.7L600.9 875c11.1 19.7 32.1 32.2 54.8 32.4l135.7 1.4c22.7 0.2 43.9-11.7 55.5-31.3l69-116.8c11.5-19.5 11.8-43.9 0.6-63.7l-66.7-118.2c-11.1-19.7-32.1-32.2-54.8-32.4L659.3 545c-11.1 0-22.1 2.8-31.8 8.3z m0 0" p-id="5143"></path><path d="M781.6 783.2c-31 31-81.5 31-112.5 0s-31-81.5 0-112.5 81.5-31 112.5 0 31.1 81.5 0 112.5z m-85.4-85.4c-16.1 16.1-16.1 42.3 0 58.4s42.3 16.1 58.4 0 16.1-42.3 0-58.4c-16.1-16.2-42.3-16.2-58.4 0z m0 0" p-id="5144"></path></svg>