<?xml version="1.0" standalone="no"?><!DOCTYPE svg PUBLIC "-//W3C//DTD SVG 1.1//EN" "http://www.w3.org/Graphics/SVG/1.1/DTD/svg11.dtd"><svg t="1736475060883" class="icon" viewBox="0 0 1024 1024" version="1.1" xmlns="http://www.w3.org/2000/svg" p-id="7967" xmlns:xlink="http://www.w3.org/1999/xlink" width="200" height="200"><path d="M876.08888889 1021.72444445H147.91111111c-43.69066667 0-72.81777778-29.12711111-72.81777778-72.81777778V75.09333333c0-43.69066667 29.12711111-72.81777778 72.81777778-72.81777778h728.17777778c43.69066667 0 72.81777778 29.12711111 72.81777778 72.81777778v873.81333334c0 43.69066667-29.12711111 72.81777778-72.81777778 72.81777778zM147.91111111 75.09333333v873.81333334h728.17777778V75.09333333H147.91111111z" fill="#1890FF" p-id="7968"></path><path d="M752.29866667 664.91733333H271.70133333c-21.84533333 0-32.768-14.56355555-32.768-32.768s14.56355555-32.768 32.768-32.768h476.95644445c21.84533333 0 32.768 14.56355555 32.768 32.768s-10.92266667 32.768-29.12711111 32.768zM752.29866667 836.03911111H271.70133333c-21.84533333 0-32.768-14.56355555-32.768-32.768s14.56355555-36.40888889 32.768-36.40888889h476.95644445c21.84533333 0 32.768 14.56355555 32.768 32.768s-10.92266667 36.40888889-29.12711111 36.40888889zM340.87822222 461.02755555c-10.92266667 0-18.20444445-3.64088889-25.48622222-10.92266666l-101.94488889-101.94488889c-14.56355555-14.56355555-14.56355555-32.768 0-47.33155555l101.94488889-101.9448889c14.56355555-14.56355555 36.40888889-14.56355555 50.97244445 0s14.56355555 32.768 0 47.33155556l-80.09955556 80.09955556L366.36444445 402.77333333c14.56355555 14.56355555 14.56355555 32.768 0 47.33155556-7.28177778 10.92266667-14.56355555 10.92266667-25.48622223 10.92266666zM683.12177778 461.02755555c-10.92266667 0-18.20444445-3.64088889-25.48622223-10.92266666-14.56355555-14.56355555-14.56355555-32.768 0-47.33155556l80.09955556-80.09955555L657.63555555 246.21511111c-14.56355555-14.56355555-14.56355555-32.768 0-47.33155556s32.768-14.56355555 47.33155556 0l101.94488889 101.9448889c14.56355555 14.56355555 14.56355555 32.768 0 47.33155555l-101.94488889 101.94488889c-3.64088889 10.92266667-10.92266667 10.92266667-21.84533333 10.92266666zM453.74577778 461.02755555c-7.28177778 0-10.92266667 0-18.20444445-3.64088888-18.20444445-10.92266667-21.84533333-29.12711111-14.56355555-47.33155556l116.50844444-203.88977778c10.92266667-18.20444445 32.768-21.84533333 50.97244445-14.56355555 18.20444445 10.92266667 21.84533333 29.12711111 14.56355555 47.33155555l-116.50844444 203.88977778c-7.28177778 14.56355555-21.84533333 18.20444445-32.768 18.20444444z" fill="#1890FF" p-id="7969"></path></svg>