<?xml version="1.0" standalone="no"?><!DOCTYPE svg PUBLIC "-//W3C//DTD SVG 1.1//EN" "http://www.w3.org/Graphics/SVG/1.1/DTD/svg11.dtd"><svg t="1736843212069" class="icon" viewBox="0 0 1260 1024" version="1.1" xmlns="http://www.w3.org/2000/svg" p-id="66977" xmlns:xlink="http://www.w3.org/1999/xlink" width="246.09375" height="200"><path d="M270.1 1024H90.033C40.33 1024 0 982.252 0 930.895V93.105C0 41.67 40.33 0 90.033 0h1080.241c49.704 0 90.034 41.748 90.034 93.105v852.126a78.77 78.77 0 0 1-78.77 78.769H270.1z m900.174-884.342a45.765 45.765 0 0 0-44.977-46.553H135.01a45.765 45.765 0 0 0-44.977 46.474v744.763c0 25.758 20.165 46.553 44.977 46.553h990.287a45.765 45.765 0 0 0 44.977-46.474V139.579zM672.926 512c0.708 7.798 2.205 15.281 2.205 23.237 0 141.39-110.828 256-247.493 256-136.743 0-247.572-114.61-247.572-256 0-141.312 110.829-256 247.572-256 7.64 0 14.966 1.654 22.45 2.363V512h222.838z m92.238-93.105h315.077V325.79H765.164v93.105z m0 186.21h315.077V512H765.164v93.105z m0 186.132h315.077V698.21H765.164v93.027z m-270.02-325.71V281.6a150.45 150.45 0 0 1 22.449-2.363c87.04 0 157.538 72.94 157.538 162.973a166.203 166.203 0 0 1-2.205 23.237H495.143z" p-id="66978"></path></svg>