<?xml version="1.0" standalone="no"?><!DOCTYPE svg PUBLIC "-//W3C//DTD SVG 1.1//EN" "http://www.w3.org/Graphics/SVG/1.1/DTD/svg11.dtd"><svg t="1737641353144" class="icon" viewBox="0 0 1024 1024" version="1.1" xmlns="http://www.w3.org/2000/svg" p-id="9465" xmlns:xlink="http://www.w3.org/1999/xlink" width="200" height="200"><path d="M568.249916 95.943794a255.968431 255.968431 0 1 1 359.80629 359.80629A469.275456 469.275456 0 1 1 568.249916 95.943794z m-43.173342 78.838276a383.952646 383.952646 0 1 0 324.056033 324.056033 255.968431 255.968431 0 0 1-324.056033-324.056033zM511.936861 597.385949V597.385949l-195.559881 52.388206a42.661405 42.661405 0 0 1-22.098608-82.421835L426.614051 531.943354V384.078924a42.661405 42.661405 0 0 1 85.32281 0v213.307025zM765.174962 54.306262a42.661405 42.661405 0 0 0-42.661405 42.661405v170.645621a42.661405 42.661405 0 1 0 85.32281 0v-170.645621a42.661405 42.661405 0 0 0-42.661405-42.661405z m0 288.988358a42.661405 42.661405 0 1 0 0 85.322811 42.661405 42.661405 0 0 0 0-85.322811z" fill="#9571E9" p-id="9466"></path></svg>