<?xml version="1.0" standalone="no"?><!DOCTYPE svg PUBLIC "-//W3C//DTD SVG 1.1//EN" "http://www.w3.org/Graphics/SVG/1.1/DTD/svg11.dtd"><svg t="1736475361703" class="icon" viewBox="0 0 1024 1024" version="1.1" xmlns="http://www.w3.org/2000/svg" p-id="11686" xmlns:xlink="http://www.w3.org/1999/xlink" width="200" height="200"><path d="M59.304971 511.111438h113.089666a56.679464 56.679464 0 0 1 56.544833 56.841021v397.96792a56.679464 56.679464 0 0 1-56.544833 56.84102h-113.089666a56.679464 56.679464 0 0 1-56.544833-56.84102v-397.96792A57.029503 57.029503 0 0 1 19.319696 527.751775a56.383276 56.383276 0 0 1 39.985275-16.640337z m395.813831-56.84102h113.089666a56.679464 56.679464 0 0 1 56.544833 56.84102v454.808941a56.679464 56.679464 0 0 1-56.544833 56.84102h-113.089666a56.679464 56.679464 0 0 1-56.544833-56.84102v-454.782015a57.002577 57.002577 0 0 1 16.559558-40.200683 56.35635 56.35635 0 0 1 39.958349-16.640337z m395.813831-170.549987h113.089666a56.679464 56.679464 0 0 1 56.544833 56.84102v625.358928a56.679464 56.679464 0 0 1-56.544833 56.84102h-113.089666a56.679464 56.679464 0 0 1-56.544833-56.84102V340.561451a56.679464 56.679464 0 0 1 56.544833-56.84102zM295.877782 234.607205l-201.003419 150.301551a56.329424 56.329424 0 0 1-79.485879-8.85869 57.083355 57.083355 0 0 1 8.831764-79.943624l226.179332-170.549987a56.275572 56.275572 0 0 1 55.171602-8.804838l203.049803 76.57786L938.792533 5.439074a56.383276 56.383276 0 0 1 74.262214 26.199106 57.002577 57.002577 0 0 1-23.721903 75.393111l-452.358665 198.98396a56.22172 56.22172 0 0 1-45.101235 2.396424l-196.049014-73.912175z m0 0" fill="#4D94FF" p-id="11687"></path></svg>