<?xml version="1.0" standalone="no"?><!DOCTYPE svg PUBLIC "-//W3C//DTD SVG 1.1//EN" "http://www.w3.org/Graphics/SVG/1.1/DTD/svg11.dtd"><svg t="1737037712767" class="icon" viewBox="0 0 1024 1024" version="1.1" xmlns="http://www.w3.org/2000/svg" p-id="1505" xmlns:xlink="http://www.w3.org/1999/xlink" width="200" height="200"><path d="M512 512m-512 0a512 512 0 1 0 1024 0 512 512 0 1 0-1024 0Z" fill="#FFFFFF" p-id="1506"></path><path d="M704 768h-384a21.333333 21.333333 0 1 1 0-42.666667H341.333333a236.330667 236.330667 0 0 1 85.333334-174.933333 212.565333 212.565333 0 0 1 15.573333-17.92c7.978667-8.533333 14.293333-15.232 14.293333-20.48 0-4.266667-12.373333-12.8-21.333333-17.066667A218.197333 218.197333 0 0 1 341.333333 298.666667h-21.333333a20.181333 20.181333 0 0 1-21.333333-21.333334 20.224 20.224 0 0 1 21.333333-21.333333h384a20.181333 20.181333 0 0 1 21.333333 21.333333 20.181333 20.181333 0 0 1-21.333333 21.333334H682.666667a215.765333 215.765333 0 0 1-93.866667 196.266666c-8.96 4.266667-21.333333 12.8-21.333333 17.066667 0 6.314667 9.429333 14.976 19.370666 24.192l1.92 1.792 8.533334 7.978667 3.584 4.053333 2.816 3.157333A245.888 245.888 0 0 1 682.666667 725.333333h21.333333a21.333333 21.333333 0 0 1 0 42.666667zM384 298.666667a171.690667 171.690667 0 0 0 76.8 162.133333c20.992 12.8 38.4 25.173333 38.4 51.2 0 21.333333-21.674667 43.050667-42.666667 64l-6.485333 7.338667A205.098667 205.098667 0 0 0 384 725.333333h256a205.098667 205.098667 0 0 0-66.048-141.994666L567.466667 576a1333.674667 1333.674667 0 0 0-7.978667-7.808c-18.602667-18.176-34.688-33.792-34.688-56.192 0-26.026667 17.408-38.4 38.4-51.2A171.690667 171.690667 0 0 0 640 298.666667z m149.333333 384h-42.666666a21.333333 21.333333 0 1 1 0-42.666667h42.666666a21.333333 21.333333 0 1 1 0 42.666667z" fill="#FFC446" p-id="1507"></path></svg>